# xmcd
#
# Track frame offsets:
#	222
#	16952
#	33380
#	52497
#	85595
#	103302
#	121390
#	141537
#	162617
#	176465
#	196030
#
# Disc length: 3047 seconds
#
# Revision: 3
# Processed by: cddbd v1.5.1PL0 Copyright (c) Steve Scherf et al.
# Submitted via: dBpowerAMP V4.0
#
DISCID=9b0be50b
DTITLE=Various Artist - The World's Greatest Pipers
DYEAR=2000
DGENRE=Folk
TTITLE0=2/4 Marches - Angus MacDonald M.B.E
TTITLE1=Hornpipes and Jigs - G.N.M. Stoddart B.E.M.
TTITLE2=Air and 9/8 Retreat March - Hugh A. MacCallum
TTITLE3=March, Strathspey and Reel - William Livingstone
TTITLE4=Gaelic Air and Jigs - Roderick J. MacLeod
TTITLE5=9/8 Marches - John Willson
TTITLE6=Strathspeys and Reels - Murray Henderson
TTITLE7=Slow March and Jigs - Donald MacLeod M.B.E.
TTITLE8=6/8 Marches - John D. Burgess
TTITLE9=Gaelic Air and Hornpipes - Iain MacFadyen
TTITLE10=March, Strathspeys and Reel - Malcom MacRae
EXTD=
EXTT0=
EXTT1=
EXTT2=
EXTT3=
EXTT4=
EXTT5=
EXTT6=
EXTT7=
EXTT8=
EXTT9=
EXTT10=
PLAYORDER=
